<svg width="25" height="25" viewBox="0 0 25 25" fill="none" xmlns="http://www.w3.org/2000/svg">
<path d="M20.5103 6.8407L20.5099 6.83995C19.9328 5.66524 18.1417 4.54668 15.9311 5.18634L15.9285 5.18708C14.8702 5.49025 13.9486 6.13992 13.3131 7.02804L12.4999 8.1645L11.6866 7.02804C11.0513 6.1402 10.1301 5.49065 9.07218 5.18736C6.84948 4.55588 5.06519 5.66889 4.48983 6.83995L4.48946 6.8407C3.59612 8.6551 3.87496 10.8013 5.77555 13.3863L20.5103 6.8407ZM20.5103 6.8407C21.4038 8.6555 21.1246 10.8021 19.2292 13.3876L19.2273 13.3901M20.5103 6.8407L19.2273 13.3901M19.2273 13.3901C17.7537 15.4133 15.6291 17.4654 12.5029 19.8937M19.2273 13.3901L12.5029 19.8937M12.5029 19.8937C9.37464 17.4617 7.25213 15.3915 5.77568 13.3864L12.5029 19.8937Z" stroke="white" stroke-width="2"/>
</svg>
